<mxfile host="app.diagrams.net" modified="2023-06-26T00:03:16.530Z" agent="Mozilla/5.0 (Windows NT 10.0; Win64; x64) AppleWebKit/537.36 (KHTML, like Gecko) Chrome/114.0.0.0 Safari/537.36" etag="8nhu_-q3VJJa6vQtCB4x" version="21.5.0" type="github">
  <diagram name="Page-1" id="Yv9lrHMjk_tWmxfgowXW">
    <mxGraphModel dx="717" dy="398" grid="1" gridSize="10" guides="1" tooltips="1" connect="1" arrows="1" fold="1" page="1" pageScale="1" pageWidth="827" pageHeight="1169" math="0" shadow="0">
      <root>
        <mxCell id="0" />
        <mxCell id="1" parent="0" />
        <mxCell id="l2dusiTU67qH028UeqSm-1" value="" style="rounded=0;whiteSpace=wrap;html=1;fillColor=none;" vertex="1" parent="1">
          <mxGeometry x="40" y="40" width="255.905" height="354.33" as="geometry" />
        </mxCell>
        <mxCell id="l2dusiTU67qH028UeqSm-7" value="" style="rounded=0;whiteSpace=wrap;html=1;" vertex="1" parent="1">
          <mxGeometry x="40" y="40" width="255.9" height="86.61399999999999" as="geometry" />
        </mxCell>
        <mxCell id="l2dusiTU67qH028UeqSm-2" value="1" style="ellipse;whiteSpace=wrap;html=1;aspect=fixed;fontSize=33;fontFamily=Comic Sans MS;" vertex="1" parent="1">
          <mxGeometry x="50" y="53.78" width="59.05" height="59.055" as="geometry" />
        </mxCell>
        <mxCell id="l2dusiTU67qH028UeqSm-4" value="" style="rounded=0;whiteSpace=wrap;html=1;" vertex="1" parent="1">
          <mxGeometry x="120" y="53.78" width="172.48" height="19.69" as="geometry" />
        </mxCell>
        <mxCell id="l2dusiTU67qH028UeqSm-5" value="" style="rounded=0;whiteSpace=wrap;html=1;" vertex="1" parent="1">
          <mxGeometry x="120" y="73.47" width="172.48" height="39.37" as="geometry" />
        </mxCell>
        <mxCell id="l2dusiTU67qH028UeqSm-6" value="" style="rounded=0;whiteSpace=wrap;html=1;" vertex="1" parent="1">
          <mxGeometry x="40" y="360" width="255.9" height="34.33" as="geometry" />
        </mxCell>
      </root>
    </mxGraphModel>
  </diagram>
</mxfile>
